<svg width="134" height="134" viewBox="0 0 134 134" fill="black" xmlns="http://www.w3.org/2000/svg">
<g clip-path="url(#clip0_78_327)">
<rect x="31" y="31" width="71" height="71" fill="white"/>
<path d="M66.9998 0C30.0543 0 0 30.057 0 66.9998C0 103.942 30.0543 134 66.9998 134C103.945 134 134 103.942 134 66.9998C134 30.057 103.946 0 66.9998 0ZM89.3535 69.7345H69.735V89.3503C69.735 90.8627 68.5127 92.085 67.0002 92.085C65.4878 92.085 64.2655 90.8627 64.2655 89.3503V69.7345H44.6465C43.1368 69.7345 41.9117 68.5095 41.9117 66.9998C41.9117 65.4901 43.1368 64.265 44.6465 64.265H64.265V44.6465C64.265 43.1368 65.4873 41.9117 66.9998 41.9117C68.5122 41.9117 69.7345 43.1368 69.7345 44.6465V64.265H89.353C90.8655 64.265 92.0878 65.4901 92.0878 66.9998C92.0878 68.5095 90.8655 69.7345 89.3535 69.7345Z" fill="#D4A8FF"/>
</g>
<defs>
<clipPath id="clip0_78_327">
<rect width="134" height="134" fill="white"/>
</clipPath>
</defs>
</svg>
