<svg viewBox="0 0 81 81" fill="currentColor" xmlns="http://www.w3.org/2000/svg">
  <g clip-path="url(#clip0_25_8)">
    <path fill-rule="evenodd" clip-rule="evenodd" d="M38.8485 0L1.18394e-05 38.8485L0.868079 33.7308C3.71415 16.9516 16.9516 3.71414 33.7307 0.868068L38.8485 0ZM42.1512 1.38126e-05L47.269 0.868068C64.0484 3.71414 77.2856 16.9516 80.1319 33.7308L81 38.8486L42.1512 1.38126e-05ZM40.4998 0.635179L80.3647 40.4999L40.4998 80.3648L0.635194 40.4999L40.4998 0.635179ZM75.4252 28.5921L52.4077 5.57461C63.2016 9.25382 71.7459 17.7982 75.4252 28.5921ZM28.592 5.57464L5.57465 28.5921C9.25388 17.7983 17.7983 9.25387 28.592 5.57464ZM40.4999 5.31699L5.31699 40.4999L40.4999 75.683L56 38.8486L40.4999 5.31699ZM81 42.1512L80.1319 47.269C77.2856 64.0481 64.0484 77.2856 47.269 80.1319L42.1512 81L81 42.1512ZM0 42.1512L38.8485 81L33.7307 80.1319C16.9516 77.2856 3.71416 64.0481 0.868079 47.269L0 42.1512ZM75.4252 52.4078C71.7459 63.2015 63.2016 71.7459 52.4077 75.4253L75.4252 52.4078ZM28.592 75.4252C17.7983 71.7459 9.25392 63.2014 5.57468 52.4078L28.592 75.4252Z" fill="inherit" />
  </g>
  <defs>
    <clipPath id="clip0_25_8">
      <rect width="81" height="81" />
    </clipPath>
  </defs>
</svg>