<svg width="146" height="100%" viewBox="0 0 146 43" xmlns="http://www.w3.org/2000/svg">
  <g clip-path="url(#clip0_25_46)">
    <path fill-rule="evenodd" clip-rule="evenodd" d="M24.1437 0.492004L4.00001 20.6357L4.45011 17.982C5.92586 9.2817 12.7897 2.41786 21.49 0.942114L24.1437 0.492004ZM25.8562 0.492012L28.5098 0.942113C37.2103 2.41786 44.074 9.2817 45.5498 17.982L46 20.6357L25.8562 0.492012ZM24.9999 0.821356L45.6706 21.492L24.9999 42.1626L4.32936 21.492L24.9999 0.821356ZM43.1094 15.3175L31.1743 3.38254C36.7712 5.29028 41.2016 9.72072 43.1094 15.3175ZM18.8255 3.38256L6.89056 15.3175C8.79831 9.72075 13.2287 5.29031 18.8255 3.38256ZM24.9999 3.24896L6.75696 21.492L24.9999 39.735L33.037 20.6357L24.9999 3.24896ZM46 22.3482L45.5498 25.0019C44.074 33.7021 37.2103 40.566 28.5098 42.0419L25.8562 42.492L46 22.3482ZM4 22.3482L24.1437 42.492L21.49 42.0419C12.7897 40.566 5.92586 33.7021 4.45012 25.0019L4 22.3482ZM43.1094 27.6664C41.2016 33.2631 36.7712 37.6936 31.1744 39.6014L43.1094 27.6664ZM18.8255 39.6014C13.2287 37.6936 8.79833 33.2631 6.89057 27.6664L18.8255 39.6014Z" fill="inherit" />
  </g>
  <path d="M63.4646 16.2082L57.7622 29.992H55.7715L57.661 25.4314L54 16.2082H56.1426L58.7576 23.3554L61.4739 16.2082H63.4646Z" fill="inherit" />
  <path d="M68.9482 25.7378C68.071 25.7378 67.278 25.5392 66.5694 25.1422C65.8608 24.7337 65.3041 24.1665 64.8992 23.4405C64.4943 22.703 64.2918 21.8522 64.2918 20.8879C64.2918 19.9349 64.4999 19.0898 64.9161 18.3524C65.3322 17.615 65.9002 17.0477 66.62 16.6507C67.3399 16.2536 68.1441 16.0551 69.0326 16.0551C69.9211 16.0551 70.7253 16.2536 71.4452 16.6507C72.165 17.0477 72.733 17.615 73.1491 18.3524C73.5653 19.0898 73.7734 19.9349 73.7734 20.8879C73.7734 21.8409 73.5597 22.686 73.1323 23.4234C72.7049 24.1608 72.12 24.7337 71.3777 25.1422C70.6466 25.5392 69.8368 25.7378 68.9482 25.7378ZM68.9482 24.0531C69.4431 24.0531 69.9043 23.9339 70.3317 23.6957C70.7703 23.4575 71.1246 23.1001 71.3945 22.6236C71.6645 22.1472 71.7994 21.5686 71.7994 20.8879C71.7994 20.2072 71.6701 19.6343 71.4114 19.1692C71.1527 18.6927 70.8097 18.3353 70.3823 18.0971C69.9549 17.8589 69.4937 17.7398 68.9989 17.7398C68.504 17.7398 68.0428 17.8589 67.6154 18.0971C67.1993 18.3353 66.8675 18.6927 66.62 19.1692C66.3726 19.6343 66.2489 20.2072 66.2489 20.8879C66.2489 21.8976 66.5019 22.6804 67.0081 23.2362C67.5255 23.7808 68.1722 24.0531 68.9482 24.0531Z" fill="inherit" />
  <path d="M84.0933 16.2082V25.5846H82.17V24.4785C81.8663 24.8642 81.467 25.1705 80.9721 25.3974C80.4885 25.613 79.9711 25.7207 79.42 25.7207C78.6889 25.7207 78.031 25.5676 77.4461 25.2613C76.8725 24.955 76.417 24.5012 76.0795 23.8999C75.7534 23.2986 75.5903 22.5726 75.5903 21.7217V16.2082H77.4967V21.4324C77.4967 22.272 77.7048 22.9186 78.1209 23.3724C78.5371 23.8148 79.1051 24.036 79.8249 24.036C80.5447 24.036 81.1127 23.8148 81.5289 23.3724C81.9563 22.9186 82.17 22.272 82.17 21.4324V16.2082H84.0933Z" fill="inherit" />
  <path d="M88.5542 17.5696C88.8354 17.0931 89.2066 16.7244 89.6677 16.4635C90.1401 16.1912 90.6968 16.0551 91.3379 16.0551V18.0631H90.8487C90.0951 18.0631 89.5215 18.2559 89.1278 18.6417C88.7454 19.0274 88.5542 19.6967 88.5542 20.6497V25.5846H86.6309V16.2082H88.5542V17.5696Z" fill="inherit" />
  <path d="M109.973 16.2082L107.088 25.5846H105.063L103.191 18.6587L101.318 25.5846H99.2935L96.3917 16.2082H98.3488L100.289 23.7468L102.263 16.2082H104.27L106.16 23.7127L108.083 16.2082H109.973Z" fill="inherit" />
  <path d="M115.442 25.7378C114.565 25.7378 113.772 25.5392 113.064 25.1422C112.355 24.7337 111.798 24.1665 111.393 23.4405C110.988 22.703 110.786 21.8522 110.786 20.8879C110.786 19.9349 110.994 19.0898 111.41 18.3524C111.826 17.615 112.394 17.0477 113.114 16.6507C113.834 16.2536 114.638 16.0551 115.527 16.0551C116.415 16.0551 117.219 16.2536 117.939 16.6507C118.659 17.0477 119.227 17.615 119.643 18.3524C120.059 19.0898 120.267 19.9349 120.267 20.8879C120.267 21.8409 120.054 22.686 119.626 23.4234C119.199 24.1608 118.614 24.7337 117.872 25.1422C117.141 25.5392 116.331 25.7378 115.442 25.7378ZM115.442 24.0531C115.937 24.0531 116.398 23.9339 116.826 23.6957C117.264 23.4575 117.619 23.1001 117.889 22.6236C118.159 22.1472 118.294 21.5686 118.294 20.8879C118.294 20.2072 118.164 19.6343 117.906 19.1692C117.647 18.6927 117.304 18.3353 116.876 18.0971C116.449 17.8589 115.988 17.7398 115.493 17.7398C114.998 17.7398 114.537 17.8589 114.11 18.0971C113.693 18.3353 113.362 18.6927 113.114 19.1692C112.867 19.6343 112.743 20.2072 112.743 20.8879C112.743 21.8976 112.996 22.6804 113.502 23.2362C114.02 23.7808 114.666 24.0531 115.442 24.0531Z" fill="inherit" />
  <path d="M124.092 17.5696C124.373 17.0931 124.744 16.7244 125.206 16.4635C125.678 16.1912 126.235 16.0551 126.876 16.0551V18.0631H126.387C125.633 18.0631 125.059 18.2559 124.666 18.6417C124.283 19.0274 124.092 19.6967 124.092 20.6497V25.5846H122.169V16.2082H124.092V17.5696Z" fill="inherit" />
  <path d="M130.567 12.992V25.5846H128.644V12.992H130.567Z" fill="inherit" />
  <path d="M132.451 20.8539C132.451 19.9123 132.642 19.0784 133.025 18.3524C133.418 17.6263 133.947 17.0647 134.61 16.6677C135.285 16.2593 136.033 16.0551 136.854 16.0551C137.462 16.0551 138.058 16.1912 138.643 16.4635C139.239 16.7244 139.711 17.0761 140.06 17.5185V12.992H142V25.5846H140.06V24.1722C139.745 24.626 139.306 25.0003 138.744 25.2953C138.193 25.5903 137.557 25.7378 136.837 25.7378C136.028 25.7378 135.285 25.5335 134.61 25.1251C133.947 24.7054 133.418 24.1268 133.025 23.3894C132.642 22.6407 132.451 21.7955 132.451 20.8539ZM140.06 20.8879C140.06 20.2413 139.925 19.6797 139.655 19.2032C139.396 18.7267 139.053 18.3637 138.626 18.1141C138.198 17.8645 137.737 17.7398 137.242 17.7398C136.747 17.7398 136.286 17.8645 135.859 18.1141C135.432 18.3524 135.083 18.7097 134.813 19.1862C134.554 19.6513 134.425 20.2072 134.425 20.8539C134.425 21.5005 134.554 22.0677 134.813 22.5556C135.083 23.0434 135.432 23.4178 135.859 23.6787C136.298 23.9283 136.759 24.0531 137.242 24.0531C137.737 24.0531 138.198 23.9283 138.626 23.6787C139.053 23.4291 139.396 23.0661 139.655 22.5896C139.925 22.1018 140.06 21.5345 140.06 20.8879Z" fill="inherit" />
  <defs>
    <clipPath id="clip0_25_46">
      <rect width="42" height="42" transform="translate(4 0.492004)" />
    </clipPath>
  </defs>
</svg>