<svg viewBox="0 0 20 20" fill="currentColor" xmlns="http://www.w3.org/2000/svg">
<path d="M0 2.42857C0 2.04969 0.15051 1.68633 0.418419 1.41842C0.686328 1.15051 1.04969 1 1.42857 1H18.5714C18.9503 1 19.3137 1.15051 19.5816 1.41842C19.8495 1.68633 20 2.04969 20 2.42857C20 2.80745 19.8495 3.17081 19.5816 3.43872C19.3137 3.70663 18.9503 3.85714 18.5714 3.85714H1.42857C1.04969 3.85714 0.686328 3.70663 0.418419 3.43872C0.15051 3.17081 0 2.80745 0 2.42857ZM0 9.57143C0 9.19255 0.15051 8.82919 0.418419 8.56128C0.686328 8.29337 1.04969 8.14286 1.42857 8.14286H18.5714C18.9503 8.14286 19.3137 8.29337 19.5816 8.56128C19.8495 8.82919 20 9.19255 20 9.57143C20 9.95031 19.8495 10.3137 19.5816 10.5816C19.3137 10.8495 18.9503 11 18.5714 11H1.42857C1.04969 11 0.686328 10.8495 0.418419 10.5816C0.15051 10.3137 0 9.95031 0 9.57143ZM0 16.7143C0 16.3354 0.15051 15.972 0.418419 15.7041C0.686328 15.4362 1.04969 15.2857 1.42857 15.2857H18.5714C18.9503 15.2857 19.3137 15.4362 19.5816 15.7041C19.8495 15.972 20 16.3354 20 16.7143C20 17.0932 19.8495 17.4565 19.5816 17.7244C19.3137 17.9923 18.9503 18.1429 18.5714 18.1429H1.42857C1.04969 18.1429 0.686328 17.9923 0.418419 17.7244C0.15051 17.4565 0 17.0932 0 16.7143Z" fill="inherit"/>
</svg>
