<svg
  viewBox="0 0 245 245"
  fill="currentColor"
  xmlns="http://www.w3.org/2000/svg"
>
  <path
    d="M238.515 95.7723H203.892C202.536 91.6551 200.879 87.6737 198.942 83.8569L223.435 59.3642C225.967 56.832 225.967 52.727 223.435 50.1953L194.804 21.5646C192.272 19.0324 188.167 19.0324 185.635 21.5646L161.142 46.0573C157.326 44.12 153.345 42.4629 149.227 41.1072V6.48508C149.228 2.90403 146.325 0.00134277 142.744 0.00134277H102.255C98.6742 0.00134277 95.771 2.90403 95.771 6.48454V41.1072C91.6538 42.4623 87.6729 44.12 83.8555 46.0573L59.3634 21.5651C56.8312 19.0329 52.7262 19.0329 50.1945 21.5651L21.5638 50.1959C19.0316 52.7276 19.0316 56.833 21.5638 59.3647L46.0559 83.8569C44.1187 87.6737 42.461 91.6551 41.1059 95.7723H6.48373C2.90269 95.7723 0 98.6755 0 102.256V142.746C0 146.326 2.90269 149.229 6.48373 149.229H41.1064C42.4621 153.346 44.1192 157.327 46.0565 161.144L21.5643 185.636C19.0321 188.168 19.0321 192.273 21.5643 194.805L50.1951 223.436C52.7273 225.968 56.8322 225.968 59.3639 223.436L83.8561 198.944C87.6729 200.881 91.6538 202.539 95.7715 203.894V238.517C95.7715 242.097 98.6742 245 102.255 245H142.745C146.325 245 149.228 242.097 149.228 238.517V203.894C153.346 202.539 157.327 200.881 161.143 198.944L185.636 223.436C188.168 225.968 192.273 225.968 194.805 223.436L223.436 194.805C225.968 192.273 225.968 188.168 223.436 185.636L198.944 161.144C200.881 157.327 202.538 153.347 203.894 149.229H238.516C242.097 149.229 245 146.327 245 142.746V102.257C244.998 98.6755 242.096 95.7723 238.515 95.7723ZM122.499 154.779C104.672 154.779 90.2201 140.327 90.2201 122.5C90.2201 104.673 104.672 90.2209 122.499 90.2209C140.326 90.2209 154.778 104.673 154.778 122.5C154.778 140.327 140.326 154.779 122.499 154.779Z"
    fill="inherit"
  />
</svg>