<svg width="122" height="122" viewBox="0 0 122 122" fill="black" xmlns="http://www.w3.org/2000/svg">
<g clip-path="url(#clip0_76_327)">
<path d="M61 30.063C43.9413 30.063 30.063 43.941 30.063 60.9997C30.063 78.0584 43.9413 91.9367 61 91.9367C78.0587 91.9367 91.9369 78.0584 91.9369 60.9997C91.9369 43.9413 78.0587 30.063 61 30.063Z" fill="inherit"/>
<path d="M107.09 61L118.419 45.7753C119.193 44.7349 119.415 43.3835 119.014 42.1499C118.613 40.9164 117.64 39.9536 116.401 39.5668L98.2874 33.9088L98.5038 14.9328C98.5187 13.6358 97.9038 12.4121 96.8546 11.6497C95.8051 10.8872 94.4512 10.6805 93.2225 11.0956L75.2423 17.1654L64.2639 1.68653C63.5135 0.628514 62.297 0 60.9999 0C59.7029 0 58.4864 0.628514 57.736 1.68653L46.7573 17.1657L28.7769 11.0958C27.5479 10.681 26.194 10.8875 25.1448 11.6499C24.0956 12.4124 23.4806 13.636 23.4956 14.9331L23.7122 33.9091L5.59815 39.567C4.36006 39.9539 3.38635 40.9166 2.98565 42.1502C2.5847 43.3837 2.80665 44.7349 3.58109 45.7756L14.9101 61.0003L3.58109 76.2249C2.80665 77.2653 2.58496 78.6168 2.98565 79.8504C3.38635 81.0839 4.36033 82.0467 5.59815 82.4335L23.7122 88.0912L23.4956 107.067C23.4806 108.364 24.0956 109.588 25.1448 110.35C26.1943 111.113 27.5476 111.319 28.7769 110.904L46.7573 104.835L57.736 120.314C58.4864 121.372 59.7029 122 60.9999 122C62.297 122 63.5135 121.372 64.2639 120.314L75.2426 104.835L93.2228 110.904C94.4515 111.319 95.8054 111.113 96.8548 110.35C97.9041 109.588 98.519 108.364 98.504 107.067L98.2877 88.0912L116.402 82.4335C117.64 82.0467 118.614 81.0839 119.014 79.8504C119.415 78.6168 119.194 77.2656 118.419 76.2249L107.09 61ZM60.9999 99.9399C39.5283 99.9399 22.0598 82.4714 22.0598 60.9997C22.0598 39.5281 39.5283 22.0599 60.9999 22.0599C82.4716 22.0599 99.9401 39.5281 99.9401 60.9997C99.9401 82.4714 82.4716 99.9399 60.9999 99.9399Z" fill="inherit"/>
</g>
<defs>
<clipPath id="clip0_76_327">
<rect width="122" height="122" fill="white"/>
</clipPath>
</defs>
</svg>
