<svg viewBox="0 0 26 26" fill="inherit" xmlns="http://www.w3.org/2000/svg">
<path d="M13.0931 6.5C9.45767 6.5 6.5 9.45761 6.5 13.0931C6.5 16.7285 9.45767 19.6862 13.0931 19.6862C16.7286 19.6862 19.6862 16.7285 19.6862 13.0931C19.6862 9.45767 16.7286 6.5 13.0931 6.5Z" fill="inherit"/>
<path d="M23.2932 13L25.8233 9.75539C25.9962 9.53367 26.0457 9.24566 25.9562 8.98276C25.8666 8.71989 25.6493 8.5147 25.3726 8.43227L21.3273 7.22646L21.3757 3.1824C21.379 2.90599 21.2417 2.6452 21.0074 2.48272C20.773 2.32022 20.4706 2.27617 20.1962 2.36464L16.1807 3.6582L13.7289 0.359424C13.5613 0.133946 13.2897 0 13 0C12.7103 0 12.4387 0.133946 12.2711 0.359424L9.81921 3.65826L5.80368 2.36468C5.52921 2.27628 5.22685 2.32029 4.99253 2.48277C4.75822 2.64527 4.62087 2.90603 4.62422 3.18246L4.67259 7.22653L0.627212 8.43231C0.350712 8.51476 0.133255 8.71993 0.0437673 8.98283C-0.0457762 9.24571 0.00379147 9.53367 0.176746 9.75545L2.70683 13.0001L0.176746 16.2446C0.00379147 16.4664 -0.0457181 16.7544 0.0437673 17.0173C0.133255 17.2802 0.350772 17.4854 0.627212 17.5678L4.67259 18.7735L4.62422 22.8176C4.62087 23.094 4.75822 23.3548 4.99253 23.5172C5.22691 23.6798 5.52914 23.7237 5.80368 23.6353L9.81921 22.3419L12.2711 25.6407C12.4387 25.8662 12.7103 26 13 26C13.2897 26 13.5613 25.8662 13.7289 25.6407L16.1808 22.3419L20.1963 23.6353C20.4707 23.7237 20.773 23.6798 21.0074 23.5172C21.2417 23.3548 21.3791 23.094 21.3757 22.8176L21.3274 18.7735L25.3728 17.5678C25.6493 17.4854 25.8668 17.2802 25.9562 17.0173C26.0457 16.7544 25.9964 16.4664 25.8233 16.2446L23.2932 13ZM13 21.2987C8.20477 21.2987 4.30356 17.5759 4.30356 12.9999C4.30356 8.42402 8.20477 4.70129 13 4.70129C17.7952 4.70129 21.6964 8.42402 21.6964 12.9999C21.6964 17.5759 17.7952 21.2987 13 21.2987Z" fill="inherit"/>
</svg>
