<svg viewBox="0 0 35 35" fill="currentColor" xmlns="http://www.w3.org/2000/svg">
  <path fill-rule="evenodd" clip-rule="evenodd" d="M16.7824 0L5.07641e-06 16.7824L0.374436 14.5749C1.60427 7.32436 7.32436 1.60426 14.5749 0.374429L16.7824 0ZM18.2175 6.14032e-06L20.4249 0.374429C27.6757 1.60426 33.3957 7.32436 34.6256 14.5749L35 16.7824L18.2175 6.14032e-06ZM17.5 0.274359L34.7256 17.5L17.5 34.7256L0.27437 17.5L17.5 0.274359ZM32.596 12.359L22.6408 2.40391C27.3102 3.99361 31.0063 7.6897 32.596 12.359ZM12.359 2.40392L2.40393 12.359C3.99364 7.68972 7.68972 3.99363 12.359 2.40392ZM17.5 2.29381L2.29382 17.5L17.5 32.7062L32.7062 17.5L17.5 2.29381ZM35 18.2174L34.6256 20.425C33.3956 27.6755 27.6757 33.3957 20.4249 34.6256L18.2175 35L35 18.2174ZM0 18.2175L16.7824 35L14.5749 34.6256C7.32436 33.3957 1.60427 27.6755 0.374436 20.425L0 18.2175ZM32.596 22.641C31.0063 27.3102 27.3102 31.0063 22.6408 32.596L32.596 22.641ZM12.359 32.596C7.68972 31.0063 3.99365 27.3102 2.40395 22.6409L12.359 32.596Z" fill="inherit" />
</svg>