<svg width="35" height="36" viewBox="0 0 35 36" fill="none" xmlns="http://www.w3.org/2000/svg">
<g clip-path="url(#clip0_33_860)">
<path fill-rule="evenodd" clip-rule="evenodd" d="M16.8491 0.714844L0.395391 17.1686L0.762489 15.0043C1.96824 7.89576 7.5763 2.28769 14.6848 1.08194L16.8491 0.714844ZM18.2561 0.71485L20.4203 1.08194C27.529 2.28769 33.137 7.89576 34.3428 15.0043L34.7099 17.1686L18.2561 0.71485ZM17.5526 0.983834L34.4409 17.8721L17.5526 34.7604L0.664382 17.8721L17.5526 0.983834ZM32.353 12.8318L22.5928 3.07168C27.1707 4.63024 30.7944 8.25395 32.353 12.8318ZM12.5123 3.07169L2.75223 12.8318C4.31081 8.25397 7.9345 4.63026 12.5123 3.07169ZM17.5526 2.96373L2.64428 17.8721L17.5526 32.7805L32.461 17.8721L17.5526 2.96373ZM34.7099 18.5755L34.3428 20.7398C33.1369 27.8483 27.529 33.4565 20.4203 34.6623L18.2561 35.0294L34.7099 18.5755ZM0.395386 18.5756L16.8491 35.0294L14.6848 34.6623C7.5763 33.4565 1.96824 27.8483 0.762489 20.7398L0.395386 18.5756ZM32.353 22.9124C30.7944 27.4902 27.1707 31.1139 22.5928 32.6725L32.353 22.9124ZM12.5123 32.6725C7.9345 31.1139 4.31082 27.4902 2.75225 22.9123L12.5123 32.6725Z" fill="url(#paint0_linear_33_860)"/>
</g>
<defs>
<linearGradient id="paint0_linear_33_860" x1="34.9271" y1="17.8721" x2="0.17815" y2="17.8721" gradientUnits="userSpaceOnUse">
<stop stop-color="#AED6FB"/>
<stop offset="1" stop-color="#E9D3FF"/>
</linearGradient>
<clipPath id="clip0_33_860">
<rect width="35" height="35" fill="white" transform="translate(0 0.5)"/>
</clipPath>
</defs>
</svg>
