<svg viewBox="0 0 35 36" fill="currentColor" xmlns="http://www.w3.org/2000/svg">
  <path fill-rule="evenodd" clip-rule="evenodd" d="M16.8491 0.964844L0.395391 17.4186L0.762489 15.2543C1.96824 8.14576 7.5763 2.53769 14.6848 1.33194L16.8491 0.964844ZM18.2561 0.96485L20.4203 1.33194C27.529 2.53769 33.137 8.14576 34.3428 15.2543L34.7099 17.4186L18.2561 0.96485ZM17.5526 1.23383L34.4409 18.1221L17.5526 35.0104L0.664382 18.1221L17.5526 1.23383ZM32.353 13.0818L22.5928 3.32168C27.1707 4.88024 30.7944 8.50395 32.353 13.0818ZM12.5123 3.32169L2.75223 13.0818C4.31081 8.50397 7.9345 4.88026 12.5123 3.32169ZM17.5526 3.21373L2.64428 18.1221L17.5526 33.0305L32.461 18.1221L17.5526 3.21373ZM34.7099 18.8255L34.3428 20.9898C33.1369 28.0983 27.529 33.7065 20.4203 34.9123L18.2561 35.2794L34.7099 18.8255ZM0.395386 18.8256L16.8491 35.2794L14.6848 34.9123C7.5763 33.7065 1.96824 28.0983 0.762489 20.9898L0.395386 18.8256ZM32.353 23.1624C30.7944 27.7402 27.1707 31.3639 22.5928 32.9225L32.353 23.1624ZM12.5123 32.9225C7.9345 31.3639 4.31082 27.7402 2.75225 23.1623L12.5123 32.9225Z" fill="inherit"/>
</svg>
